<svg width="32" height="32" viewBox="0 0 32 32" fill="none" xmlns="http://www.w3.org/2000/svg">
<mask id="mask0" mask-type="alpha" maskUnits="userSpaceOnUse" x="4" y="6" width="23" height="24">
<path d="M10.9511 8.02015C9.25458 8.58495 7.94445 10.7459 7.00323 12.1575C6.21398 13.3406 5.42203 14.5481 4.99524 15.9012C4.66026 16.9638 4.48226 18.208 4.48514 19.4834C4.49163 21.9801 5.19198 24.5973 6.76797 26.2107C7.10107 26.5518 7.50892 26.7525 7.93008 26.9574C8.68602 27.3249 9.23647 27.9492 10.0228 28.2829C12.0841 29.1569 14.6896 29.4724 16.9124 29.1668C19.6441 28.7908 22.6961 26.8851 24.3344 24.7021C25.9711 22.521 26.4643 18.9824 25.5924 16.4198C24.9312 14.476 23.7319 12.7754 22.841 10.9366C22.2362 9.68756 20.9798 8.81709 19.7867 8.10234C18.7295 7.46853 17.5549 7.15585 16.4309 6.6751C16.0422 6.50887 15.6599 6.43945 15.2833 6.43945C13.7767 6.43945 12.3591 7.55134 10.9511 8.02015Z" fill="white"/>
</mask>
<g mask="url(#mask0)">
<path fill-rule="evenodd" clip-rule="evenodd" d="M10.9511 8.02015C9.25458 8.58495 7.94445 10.7459 7.00323 12.1575C6.21398 13.3406 5.42203 14.5481 4.99524 15.9012C4.66026 16.9638 4.48226 18.208 4.48514 19.4834C4.49163 21.9801 5.09059 23.72 6.66659 25.3335C6.99969 25.6746 7.50892 26.7525 7.93008 26.9574C8.68602 27.3249 9.23647 27.9492 10.0228 28.2829C12.0841 29.1569 14.6896 29.4724 16.9124 29.1668C19.6441 28.7908 22.6961 26.8851 24.3344 24.7021C25.9711 22.521 26.4643 18.9824 25.5924 16.4198C24.9312 14.476 23.7318 12.7754 22.841 10.9366C22.2362 9.68756 20.9798 8.81709 19.7867 8.10234C18.7295 7.46853 17.5549 7.15585 16.4309 6.6751C16.0422 6.50887 15.6599 6.43945 15.2833 6.43945C13.7767 6.43945 12.3591 7.55134 10.9511 8.02015Z" fill="url(#paint0_radial)"/>
</g>
<path fill-rule="evenodd" clip-rule="evenodd" d="M11.294 3.66887C11.2203 3.71492 11.1442 3.81133 11.1566 3.90301C11.258 4.65412 11.3834 5.40235 11.544 6.14356C11.6014 6.40866 11.6232 6.95042 11.8081 7.15812C11.9978 7.37161 12.4715 7.09783 12.6843 7.01649C13.7146 6.62235 14.8086 6.39049 15.9122 6.33247C16.167 6.31905 16.4271 6.31533 16.6726 6.38429C16.9335 6.45759 17.1649 6.60934 17.4208 6.69791C17.5184 6.73157 17.6189 6.75593 17.7192 6.78029C17.7651 6.79144 17.8153 6.80218 17.8583 6.78256C17.999 6.71815 17.9839 6.03413 17.9996 5.88878C18.0375 5.5349 18.0696 5.1804 18.0892 4.82528C18.1108 4.43775 18.2518 3.77954 17.9569 3.46365C17.7952 3.29043 17.4495 3.18513 17.2317 3.09428C16.9331 2.96999 16.5917 2.91611 16.2747 2.85148C15.5874 2.71109 14.8844 2.62623 14.1822 2.68631C13.1542 2.77426 12.1637 3.12546 11.294 3.66887Z" fill="#004531"/>
<path fill-rule="evenodd" clip-rule="evenodd" d="M7.79287 15.1029C6.89993 16.5676 6.60424 18.3915 6.84632 20.0725C7.09825 21.8194 7.93946 23.4905 9.2261 24.7204C9.87256 25.3384 10.5963 25.7274 11.4118 26.079C16.3669 28.2148 23.435 25.5764 23.9058 19.7967C24.0354 18.2081 23.7466 16.575 23.2007 15.1081C22.8537 14.1755 22.3515 14.4858 21.5532 14.4748C21.0511 14.4678 20.551 14.4319 20.0474 14.4369C17.6561 14.4614 15.2662 14.6117 12.8911 14.8872C11.5072 15.0476 10.1102 15.2507 8.72686 15.0878" fill="#FFAFBC"/>
<path fill-rule="evenodd" clip-rule="evenodd" d="M21.0828 13.8208C21.6152 13.9092 22.1343 14.0382 22.6199 14.2344C22.7745 14.2969 22.946 14.389 22.9747 14.5513C23.0151 14.7788 22.7548 14.9353 22.5362 15.0187C20.8292 15.6697 19.1943 15.8692 17.3825 16.0397C15.4636 16.2202 13.5226 16.1933 11.6089 15.9695C10.441 15.833 9.25094 15.8363 8.12785 15.4331C8.02964 15.3978 7.9287 15.3578 7.85708 15.2826C7.44014 14.8447 9.81405 14.1861 10.1087 14.1307C11.2397 13.9187 12.3882 13.8208 13.5311 13.6947C15.0902 13.5223 16.6631 13.5012 18.2289 13.5857C19.1497 13.6352 20.1375 13.6639 21.0828 13.8208Z" fill="#FFD3DA"/>
<path fill-rule="evenodd" clip-rule="evenodd" d="M15.7975 19.1382C14.3131 20.0242 13.0208 21.2677 12.2866 22.6236C11.7095 23.6891 11.6865 24.6808 12.8305 25.3751C14.4149 26.3366 15.8278 26.1068 17.5147 25.7238C19.1937 25.3427 21.6407 24.2825 22.4499 22.6607C23.0928 21.3724 23.5374 18.9828 21.9421 18.1555C20.0368 17.1675 17.4692 18.1406 15.7975 19.1382Z" fill="#FF93A1"/>
<path fill-rule="evenodd" clip-rule="evenodd" d="M8.70513 19.7475C9.15705 19.3824 10.2546 17.9871 9.42363 17.4627C9.28521 17.3754 9.10846 17.3649 8.94742 17.3971C7.87313 17.6108 7.82538 18.7116 8.03228 19.5614C8.07605 19.7402 8.1862 19.9523 8.37237 19.9403C8.44546 19.9353 8.51038 19.8945 8.56943 19.8515C8.61466 19.8187 8.66011 19.7838 8.70513 19.7475Z" fill="#FF93A1"/>
<path fill-rule="evenodd" clip-rule="evenodd" d="M21.9487 26.3494C18.8255 28.3717 14.6722 28.9261 11.1322 27.7236C6.57875 26.1768 4.2886 21.6251 5.26153 17.037C5.82632 14.373 7.26395 11.8913 9.09716 9.87501C10.1775 8.6866 11.5086 7.67203 13.0285 7.09765C15.642 6.11033 18.0345 7.16908 20.1207 8.78136C22.0056 10.2382 23.5513 12.1513 24.5835 14.2812C26.6538 18.5531 26.2048 23.5933 21.9487 26.3494ZM26.6835 17.5099C25.791 12.5155 21.6628 7.27252 16.6419 5.84813C14.0869 5.12323 11.3188 6.48404 9.45609 8.12625C7.69597 9.67763 6.26986 11.6145 5.3252 13.7479C4.42409 15.7832 3.76443 18.4336 4.07981 20.663C4.27917 22.0706 5.02511 23.6906 5.82297 24.8691C6.63026 26.0614 7.71231 27.0667 8.97444 27.7798C10.7913 28.8061 12.8989 29.2994 14.9844 29.332C17.1512 29.3659 18.9505 28.7882 20.9146 27.9861C23.2669 27.0256 24.9889 25.339 26.036 23.034C26.8213 21.3051 27.0159 19.3697 26.6835 17.5099Z" fill="#004531"/>
<path fill-rule="evenodd" clip-rule="evenodd" d="M13.0807 9.40759C13.1029 9.51681 13.1268 9.62912 13.19 9.72162C13.2931 9.87193 13.479 9.94089 13.6551 9.99291C13.9946 10.0933 14.3588 10.2064 14.7158 10.2167C15.1349 10.2291 15.5637 10.1151 15.9541 9.98321C16.1947 9.90186 16.4075 9.81143 16.6376 9.69519C16.6705 9.67868 16.7038 9.66175 16.731 9.63718C16.8652 9.51578 16.8464 9.10987 16.8533 8.93768C16.891 7.9739 16.9643 7.02582 16.9821 6.05915C16.7404 6.17663 16.6401 6.23465 16.3599 6.18385C16.1501 6.14566 15.9516 6.05027 15.7474 5.98813C15.3053 5.85372 14.8427 5.77072 14.3787 5.79859C14.0363 5.81903 13.6882 5.91194 13.3768 6.05192C13.2101 6.12666 13.0776 6.23485 12.9234 6.3259C12.757 6.42397 12.6994 6.39073 12.517 6.35316C12.5773 6.92506 12.7369 7.47797 12.8344 8.04141C12.9132 8.49729 12.9879 8.95399 13.0807 9.40759Z" fill="#8CB973"/>
<path fill-rule="evenodd" clip-rule="evenodd" d="M12.2657 4.29039C12.2134 4.32301 12.1596 4.39156 12.1681 4.45659C12.2213 4.85053 12.2837 5.24322 12.3587 5.63365C12.4337 6.02407 12.4875 6.41842 12.5727 6.80678C12.5868 6.86995 12.6018 6.93396 12.6326 6.99115C12.6741 7.06775 12.7403 7.12556 12.7591 7.21186C12.7757 7.28722 12.7736 7.35473 12.8062 7.42989C12.8701 7.57648 12.9779 7.6793 13.1241 7.74764C13.8219 8.07406 14.616 8.11803 15.3657 7.96587C15.7422 7.88948 16.1085 7.76518 16.4565 7.60476C16.7239 7.4815 16.9327 7.2131 17.0043 6.92508C17.0236 6.84745 17.0297 6.76734 17.0345 6.68765C17.0835 5.89689 17.117 5.11418 17.0684 4.32404C17.0584 4.16094 17.0016 4.1246 16.8571 4.04119C16.7401 3.97367 16.6077 3.93424 16.4831 3.88221C16.2712 3.79405 16.0287 3.75585 15.8036 3.70981C15.3154 3.61009 14.816 3.5498 14.3171 3.59254C13.5871 3.65489 12.8835 3.90451 12.2657 4.29039Z" fill="#DE8845"/>
<path fill-rule="evenodd" clip-rule="evenodd" d="M12.262 4.28718C12.2319 4.31753 12.2105 4.34954 12.2015 4.38319C12.1485 4.58511 12.436 4.77217 12.5877 4.83122C13.4077 5.15124 14.3325 5.16528 15.1917 5.01332C15.568 4.94663 16.9874 4.76886 16.9988 4.24238C17.0034 4.01919 16.6591 3.9556 16.4832 3.88231C16.2712 3.79394 16.0285 3.75574 15.8034 3.70991C15.3153 3.61019 14.816 3.5499 14.3172 3.59243C13.7893 3.63765 13.2722 3.78155 12.7935 4.00412C12.6708 4.0611 12.3893 4.15856 12.262 4.28718Z" fill="#EBB749"/>
<path fill-rule="evenodd" clip-rule="evenodd" d="M17.539 6.8238C17.5248 6.80811 17.5099 6.79304 17.494 6.779C17.4574 6.74596 17.2318 6.63489 17.2318 6.5905C17.1464 6.51472 17.0848 6.40633 17.0149 6.31445C17.0986 6.42471 16.8622 6.89833 16.8055 7.00281C16.6434 7.30135 16.4132 7.51628 16.1324 7.70189C16.0945 7.72708 16.0539 7.74814 16.0122 7.76652C16.0158 7.78737 16.0442 7.79171 16.0656 7.78943C16.1984 7.77519 16.3355 7.7597 16.4677 7.73513C16.6786 7.69591 16.9169 7.66163 17.0915 7.5392C17.3018 7.3922 17.4974 7.2165 17.6898 7.04781C17.6932 7.04472 17.6969 7.04121 17.6974 7.03667C17.6978 7.03212 17.6951 7.0282 17.6923 7.02448C17.6419 6.95759 17.5956 6.88574 17.539 6.8238Z" fill="#004531"/>
<path fill-rule="evenodd" clip-rule="evenodd" d="M12.0655 6.95941C12.1347 6.88343 12.2469 6.85494 12.2978 6.76348C12.3179 6.72735 12.3267 6.68419 12.3437 6.64662C12.3625 6.6045 12.4274 6.52893 12.4274 6.48413C12.4894 6.64311 12.564 6.79569 12.6471 6.94496C12.8467 7.30297 13.1248 7.60792 13.4722 7.8375C13.5101 7.86269 13.5505 7.88375 13.5922 7.90213C13.5888 7.92298 13.5603 7.92732 13.539 7.92505C13.4062 7.9108 13.2688 7.89531 13.1369 7.87075C12.926 7.83152 12.6877 7.79724 12.5129 7.67481C12.3028 7.52781 12.1072 7.35211 11.9148 7.18343C11.9112 7.18033 11.9077 7.17682 11.907 7.17228C11.9066 7.16773 11.9095 7.16381 11.9123 7.1601C11.9625 7.0932 12.009 7.02135 12.0655 6.95941Z" fill="#004531"/>
<path fill-rule="evenodd" clip-rule="evenodd" d="M10.4912 14.61C10.7611 14.3416 10.9969 14.0629 11.1625 13.8538C11.7696 13.0884 12.1774 12.0749 12.0308 11.0923C11.9788 10.7438 11.711 10.3699 11.3556 10.4077C10.1259 10.5384 9.14421 11.6229 8.58947 12.6336C8.19807 13.3469 7.40565 15.5833 9.03573 15.495C9.50586 15.4694 10.0451 15.0537 10.4912 14.61Z" fill="white"/>
<path fill-rule="evenodd" clip-rule="evenodd" d="M21.1105 25.3598C21.842 25.1378 22.8286 24.5488 22.8277 23.7116C22.8269 22.9365 21.9855 23.072 21.4709 23.3032C20.9082 23.5559 20.4597 24.0667 20.2513 24.6367C19.9962 25.3346 20.4216 25.5508 21.0561 25.3755C21.0743 25.3705 21.0925 25.3652 21.1105 25.3598Z" fill="white"/>
<mask id="mask1" mask-type="alpha" maskUnits="userSpaceOnUse" x="5" y="15" width="21" height="7">
<path d="M21.7984 18.5305C21.7654 18.5713 21.7304 18.6136 21.6817 18.6348C21.6102 18.6661 21.5271 18.6456 21.4516 18.6248C20.7252 18.4239 20.1695 18.2027 19.4961 17.8587C18.8484 17.5272 18.2204 17.2063 17.5998 16.8277C17.5331 16.7871 17.4597 16.7448 17.3813 16.7513C17.3199 16.7566 17.266 16.7908 17.2151 16.825C16.373 17.39 15.6222 18.0698 14.8214 18.6895C14.2634 19.1212 13.79 19.618 13.2062 20.0239C13.186 20.0378 13.1648 20.0522 13.1402 20.0555C13.1097 20.0593 13.0798 20.0445 13.0527 20.0302C11.696 19.3187 10.5891 18.2494 9.39016 17.3159C9.29384 17.2408 9.18869 17.1624 9.06524 17.1561C8.92075 17.1485 8.79331 17.2416 8.68037 17.3297C7.81895 18.0038 6.95731 18.6775 6.09547 19.3512C5.93963 18.6999 5.78379 18.0484 5.62774 17.3969C5.6126 18.5415 5.71691 19.6876 5.93921 20.8118L8.7422 18.262C9.06986 17.9641 10.8806 19.4308 11.1279 19.634C11.8279 20.2086 12.43 20.8743 13.1347 21.4497C13.222 21.521 13.3377 21.5953 13.4418 21.5497C13.4857 21.5305 13.5177 21.4929 13.548 21.4566C14.1318 20.7577 14.6637 20.0174 15.2809 19.3449C15.5985 18.9992 15.9379 18.671 16.3127 18.3833C16.5939 18.1677 17.1154 17.7098 17.495 17.706C18.0652 17.7001 18.75 18.1144 19.2202 18.4008C20.113 18.944 21.0318 19.417 21.9298 19.9516C22.043 20.019 23.6266 17.0347 23.8157 16.8104C23.8434 16.7774 25.1942 18.2072 25.3051 18.3245C24.822 17.5427 24.3892 16.6406 23.7715 15.95C23.1429 16.8547 22.488 17.6811 21.7984 18.5305ZM5.62774 17.3969C5.62816 17.3729 5.62858 17.3487 5.629 17.3244L5.59241 17.2489C5.60418 17.2984 5.61596 17.3476 5.62774 17.3969Z" fill="white"/>
</mask>
<g mask="url(#mask1)">
<path fill-rule="evenodd" clip-rule="evenodd" d="M21.7984 18.5305C21.7654 18.5713 21.7304 18.6136 21.6817 18.6348C21.6102 18.6661 21.5271 18.6456 21.4516 18.6248C20.7252 18.4239 20.1695 18.2027 19.4961 17.8587C18.8484 17.5272 18.2204 17.2063 17.5998 16.8277C17.5331 16.7871 17.4597 16.7448 17.3813 16.7513C17.3199 16.7566 17.266 16.7908 17.2151 16.825C16.373 17.39 15.6222 18.0698 14.8214 18.6895C14.2634 19.1212 13.79 19.618 13.2062 20.0239C13.186 20.0378 13.1648 20.0522 13.1402 20.0555C13.1097 20.0593 13.0798 20.0445 13.0527 20.0302C11.696 19.3187 10.5891 18.2494 9.39016 17.3159C9.29384 17.2408 9.18869 17.1624 9.06524 17.1561C8.92075 17.1485 8.79331 17.2416 8.68037 17.3297C7.81895 18.0038 6.95731 18.6775 6.09547 19.3512C5.93963 18.6999 5.78379 18.0484 5.62774 17.3969C5.6126 18.5415 5.71691 19.6876 5.93921 20.8118L8.7422 18.262C9.06986 17.9641 10.8806 19.4308 11.1279 19.634C11.8279 20.2086 12.43 20.8743 13.1347 21.4497C13.222 21.521 13.3377 21.5953 13.4418 21.5497C13.4857 21.5305 13.5177 21.4929 13.548 21.4566C14.1318 20.7577 14.6637 20.0174 15.2809 19.3449C15.5985 18.9992 15.9379 18.671 16.3127 18.3833C16.5939 18.1677 17.1154 17.7098 17.495 17.706C18.0652 17.7001 18.75 18.1144 19.2202 18.4008C20.113 18.944 21.0318 19.417 21.9298 19.9516C22.043 20.019 23.6266 17.0347 23.8157 16.8104C23.8434 16.7774 25.1942 18.2072 25.3051 18.3245C24.822 17.5427 24.3892 16.6406 23.7715 15.95C23.1429 16.8547 22.488 17.6811 21.7984 18.5305ZM5.62774 17.3969C5.62816 17.3729 5.62858 17.3487 5.629 17.3244L5.59241 17.2489C5.60418 17.2984 5.61596 17.3476 5.62774 17.3969Z" fill="url(#paint1_radial)"/>
</g>
<defs>
<radialGradient id="paint0_radial" cx="0" cy="0" r="1" gradientUnits="userSpaceOnUse" gradientTransform="translate(15.2515 17.217) scale(11.1614)">
<stop stop-color="#8BB9BB"/>
<stop offset="1" stop-color="#6CB98F"/>
</radialGradient>
<radialGradient id="paint1_radial" cx="0" cy="0" r="1" gradientUnits="userSpaceOnUse" gradientTransform="translate(8.18951 20.5659) rotate(43.3218) scale(15.1345 8.58808)">
<stop stop-color="#8DEFBB"/>
<stop offset="1" stop-color="#BEFBFF"/>
</radialGradient>
</defs>
</svg>
